<svg xmlns="http://www.w3.org/2000/svg" viewBox="0 0 100 100" fill="none">
  <circle cx="50" cy="50" r="45" fill="#1457e1" opacity="0.15"/>
  <path d="M25 55 C25 35, 45 20, 70 30 C80 35, 85 45, 80 55 C75 65, 65 70, 55 68 C50 67, 45 70, 40 72 C35 74, 28 70, 25 65 Z" fill="#338dff" opacity="0.8"/>
  <circle cx="65" cy="40" r="4" fill="white"/>
  <path d="M20 58 C15 55, 10 58, 12 62 C14 66, 20 65, 22 62" fill="#338dff" opacity="0.6"/>
  <path d="M75 60 Q80 55, 85 60 Q90 65, 85 68 Q80 71, 75 68 Q70 65, 75 60" fill="#338dff" opacity="0.5"/>
</svg>
